G04 EAGLE Gerber RS-274X export*
G75*
%MOMM*%
%FSLAX34Y34*%
%LPD*%
%INTop Copper*%
%IPPOS*%
%AMOC8*
5,1,8,0,0,1.08239X$1,22.5*%
G01*
%ADD10C,1.510000*%
%ADD11R,1.016000X1.270000*%
%ADD12C,0.800000*%
%ADD13C,0.304800*%


D10*
X266700Y25400D03*
X266700Y50800D03*
X241300Y25400D03*
X241300Y50800D03*
X190500Y25400D03*
X165100Y25400D03*
D11*
X216916Y77470D03*
X203200Y77470D03*
X189484Y77470D03*
D12*
X57150Y68580D03*
D13*
X67624Y58106D01*
X68049Y57691D01*
X68483Y57287D01*
X68927Y56893D01*
X69380Y56509D01*
X69843Y56137D01*
X70314Y55775D01*
X70793Y55425D01*
X71281Y55087D01*
X71776Y54760D01*
X72279Y54445D01*
X72790Y54142D01*
X73308Y53851D01*
X73832Y53573D01*
X74363Y53307D01*
X74900Y53054D01*
X75443Y52814D01*
X75991Y52587D01*
X76545Y52373D01*
X77104Y52172D01*
X77667Y51984D01*
X78234Y51810D01*
X78806Y51650D01*
X79381Y51503D01*
X79960Y51370D01*
X80541Y51251D01*
X81126Y51145D01*
X81712Y51054D01*
X82301Y50976D01*
X82891Y50913D01*
X83483Y50864D01*
X84075Y50828D01*
X84668Y50807D01*
X85262Y50800D01*
X117269Y50800D01*
X117682Y50805D01*
X118095Y50820D01*
X118507Y50844D01*
X118919Y50879D01*
X119330Y50923D01*
X119740Y50977D01*
X120148Y51040D01*
X120554Y51114D01*
X120959Y51197D01*
X121362Y51289D01*
X121762Y51392D01*
X122160Y51503D01*
X122555Y51624D01*
X122947Y51755D01*
X123336Y51895D01*
X123721Y52044D01*
X124103Y52202D01*
X124481Y52369D01*
X124854Y52545D01*
X125224Y52730D01*
X125589Y52923D01*
X125949Y53126D01*
X126304Y53337D01*
X126655Y53556D01*
X126999Y53783D01*
X127339Y54019D01*
X127672Y54263D01*
X128000Y54514D01*
X128322Y54773D01*
X128637Y55040D01*
X128946Y55314D01*
X129249Y55596D01*
X129544Y55885D01*
X129545Y55885D02*
X156274Y82614D01*
X156640Y82971D01*
X157013Y83319D01*
X157395Y83658D01*
X157785Y83988D01*
X158183Y84308D01*
X158588Y84619D01*
X159001Y84920D01*
X159420Y85212D01*
X159847Y85493D01*
X160280Y85764D01*
X160719Y86025D01*
X161164Y86275D01*
X161616Y86514D01*
X162072Y86743D01*
X162534Y86961D01*
X163001Y87167D01*
X163473Y87363D01*
X163950Y87547D01*
X164430Y87720D01*
X164915Y87881D01*
X165403Y88031D01*
X165895Y88169D01*
X166390Y88295D01*
X166888Y88410D01*
X167388Y88512D01*
X167891Y88603D01*
X168396Y88682D01*
X168902Y88748D01*
X169410Y88803D01*
X169919Y88845D01*
X170429Y88876D01*
X170939Y88894D01*
X171450Y88900D01*
X198790Y88900D02*
X198918Y88898D01*
X199046Y88893D01*
X199174Y88883D01*
X199302Y88870D01*
X199429Y88853D01*
X199556Y88833D01*
X199682Y88809D01*
X199807Y88781D01*
X199931Y88750D01*
X200055Y88715D01*
X200177Y88676D01*
X200298Y88634D01*
X200418Y88588D01*
X200537Y88539D01*
X200654Y88487D01*
X200769Y88431D01*
X200883Y88372D01*
X200995Y88309D01*
X201105Y88243D01*
X201213Y88174D01*
X201319Y88102D01*
X201423Y88027D01*
X201525Y87949D01*
X201625Y87868D01*
X201722Y87784D01*
X201816Y87698D01*
X201908Y87608D01*
X198790Y88900D02*
X171450Y88900D01*
X201908Y87608D02*
X201998Y87516D01*
X202084Y87422D01*
X202168Y87325D01*
X202249Y87225D01*
X202327Y87123D01*
X202402Y87019D01*
X202474Y86913D01*
X202543Y86805D01*
X202609Y86695D01*
X202672Y86583D01*
X202731Y86469D01*
X202787Y86354D01*
X202839Y86237D01*
X202888Y86118D01*
X202934Y85998D01*
X202976Y85877D01*
X203015Y85755D01*
X203050Y85631D01*
X203081Y85507D01*
X203109Y85382D01*
X203133Y85256D01*
X203153Y85129D01*
X203170Y85002D01*
X203183Y84874D01*
X203193Y84746D01*
X203198Y84618D01*
X203200Y84490D01*
X203200Y77470D01*
X61393Y64337D02*
X59467Y69452D01*
X57150Y68580D01*
X56278Y66263D02*
X61393Y64337D01*
X56278Y66263D02*
X57150Y68580D01*
X216916Y77470D02*
X225265Y69121D01*
X225265Y69122D02*
X225385Y68998D01*
X225503Y68871D01*
X225618Y68741D01*
X225729Y68609D01*
X225837Y68474D01*
X225942Y68336D01*
X226044Y68196D01*
X226142Y68053D01*
X226236Y67908D01*
X226327Y67760D01*
X226414Y67611D01*
X226497Y67459D01*
X226577Y67306D01*
X226653Y67150D01*
X226725Y66993D01*
X226793Y66834D01*
X226857Y66673D01*
X226918Y66511D01*
X226974Y66347D01*
X227026Y66182D01*
X227075Y66016D01*
X227119Y65849D01*
X227159Y65680D01*
X227194Y65511D01*
X227226Y65341D01*
X227254Y65170D01*
X227277Y64998D01*
X227296Y64826D01*
X227311Y64654D01*
X227322Y64481D01*
X227328Y64308D01*
X227330Y64135D01*
X227330Y43026D01*
X227333Y42783D01*
X227342Y42539D01*
X227356Y42296D01*
X227376Y42054D01*
X227403Y41812D01*
X227434Y41571D01*
X227472Y41330D01*
X227515Y41091D01*
X227565Y40852D01*
X227619Y40615D01*
X227680Y40379D01*
X227746Y40145D01*
X227817Y39913D01*
X227894Y39682D01*
X227977Y39453D01*
X228065Y39226D01*
X228158Y39001D01*
X228257Y38779D01*
X228361Y38559D01*
X228471Y38341D01*
X228585Y38126D01*
X228705Y37914D01*
X228829Y37705D01*
X228959Y37499D01*
X229093Y37296D01*
X229232Y37097D01*
X229376Y36901D01*
X229525Y36708D01*
X229678Y36519D01*
X229836Y36333D01*
X229998Y36152D01*
X230164Y35974D01*
X230335Y35800D01*
X230509Y35631D01*
X241300Y25400D01*
X189484Y77470D02*
X180420Y68406D01*
X180271Y68254D01*
X180126Y68098D01*
X179985Y67939D01*
X179847Y67776D01*
X179714Y67610D01*
X179584Y67442D01*
X179459Y67270D01*
X179337Y67095D01*
X179220Y66917D01*
X179107Y66737D01*
X178998Y66554D01*
X178894Y66368D01*
X178794Y66180D01*
X178699Y65989D01*
X178608Y65797D01*
X178522Y65602D01*
X178441Y65406D01*
X178364Y65207D01*
X178292Y65007D01*
X178225Y64805D01*
X178162Y64601D01*
X178105Y64396D01*
X178052Y64190D01*
X178004Y63982D01*
X177962Y63774D01*
X177924Y63564D01*
X177891Y63354D01*
X177863Y63143D01*
X177841Y62931D01*
X177823Y62719D01*
X177810Y62507D01*
X177803Y62294D01*
X177800Y62081D01*
X177800Y42502D01*
X177803Y42249D01*
X177812Y41996D01*
X177827Y41744D01*
X177848Y41492D01*
X177875Y41240D01*
X177908Y40990D01*
X177947Y40740D01*
X177992Y40491D01*
X178043Y40243D01*
X178100Y39997D01*
X178162Y39752D01*
X178230Y39508D01*
X178305Y39266D01*
X178384Y39026D01*
X178470Y38788D01*
X178561Y38552D01*
X178658Y38319D01*
X178760Y38087D01*
X178868Y37859D01*
X178981Y37632D01*
X179100Y37409D01*
X179224Y37188D01*
X179353Y36971D01*
X179487Y36757D01*
X179626Y36545D01*
X179771Y36338D01*
X179920Y36133D01*
X180074Y35933D01*
X180232Y35736D01*
X180396Y35543D01*
X180564Y35354D01*
X180736Y35169D01*
X180913Y34988D01*
X180913Y34987D02*
X190500Y25400D01*
D12*
X57150Y50800D03*
D13*
X156890Y33610D02*
X165100Y25400D01*
X156890Y33610D02*
X156621Y33873D01*
X156345Y34129D01*
X156063Y34378D01*
X155775Y34620D01*
X155481Y34855D01*
X155182Y35083D01*
X154877Y35304D01*
X154567Y35516D01*
X154252Y35722D01*
X153931Y35919D01*
X153606Y36108D01*
X153277Y36290D01*
X152943Y36463D01*
X152604Y36628D01*
X152262Y36785D01*
X151917Y36933D01*
X151567Y37073D01*
X151215Y37204D01*
X150859Y37326D01*
X150500Y37440D01*
X150139Y37545D01*
X149775Y37641D01*
X149409Y37728D01*
X149041Y37805D01*
X148671Y37874D01*
X148299Y37934D01*
X147927Y37985D01*
X147553Y38026D01*
X147178Y38058D01*
X146802Y38082D01*
X146426Y38095D01*
X146050Y38100D01*
X82550Y38100D01*
X81798Y38109D01*
X81046Y38137D01*
X80294Y38183D01*
X79545Y38248D01*
X78797Y38331D01*
X78051Y38432D01*
X77308Y38551D01*
X76568Y38689D01*
X75832Y38845D01*
X75100Y39019D01*
X74372Y39211D01*
X73650Y39420D01*
X72932Y39648D01*
X72221Y39892D01*
X71515Y40155D01*
X70817Y40434D01*
X70125Y40730D01*
X69441Y41044D01*
X68764Y41374D01*
X68097Y41720D01*
X67437Y42083D01*
X66787Y42462D01*
X66146Y42857D01*
X65516Y43267D01*
X64895Y43693D01*
X64285Y44134D01*
X63686Y44590D01*
X63099Y45060D01*
X62523Y45544D01*
X61959Y46043D01*
X61408Y46555D01*
X60869Y47080D01*
X60870Y47080D02*
X57150Y50800D01*
X59466Y51676D02*
X61399Y46564D01*
X59466Y51676D02*
X57150Y50800D01*
X56281Y48481D02*
X61399Y46564D01*
X56281Y48481D02*
X57150Y50800D01*
M02*
