G04 EAGLE Gerber RS-274X export*
G75*
%MOMM*%
%FSLAX34Y34*%
%LPD*%
%INSilkscreen Top*%
%IPPOS*%
%AMOC8*
5,1,8,0,0,1.08239X$1,22.5*%
G01*
%ADD10C,0.076200*%


D10*
X8735Y77597D02*
X7098Y77597D01*
X7020Y77599D01*
X6942Y77604D01*
X6865Y77614D01*
X6788Y77627D01*
X6712Y77643D01*
X6637Y77663D01*
X6563Y77687D01*
X6490Y77714D01*
X6418Y77745D01*
X6348Y77779D01*
X6279Y77816D01*
X6213Y77857D01*
X6148Y77901D01*
X6086Y77947D01*
X6026Y77997D01*
X5968Y78049D01*
X5913Y78104D01*
X5861Y78162D01*
X5811Y78222D01*
X5765Y78284D01*
X5721Y78349D01*
X5680Y78416D01*
X5643Y78484D01*
X5609Y78554D01*
X5578Y78626D01*
X5551Y78699D01*
X5527Y78773D01*
X5507Y78848D01*
X5491Y78924D01*
X5478Y79001D01*
X5468Y79078D01*
X5463Y79156D01*
X5461Y79234D01*
X5461Y83326D01*
X5463Y83406D01*
X5469Y83486D01*
X5479Y83566D01*
X5492Y83645D01*
X5510Y83724D01*
X5531Y83801D01*
X5557Y83877D01*
X5586Y83952D01*
X5618Y84026D01*
X5654Y84098D01*
X5694Y84168D01*
X5737Y84235D01*
X5783Y84301D01*
X5833Y84364D01*
X5885Y84425D01*
X5940Y84484D01*
X5999Y84539D01*
X6059Y84591D01*
X6123Y84641D01*
X6189Y84687D01*
X6256Y84730D01*
X6326Y84770D01*
X6398Y84806D01*
X6472Y84838D01*
X6546Y84867D01*
X6623Y84893D01*
X6700Y84914D01*
X6779Y84932D01*
X6858Y84945D01*
X6938Y84955D01*
X7018Y84961D01*
X7098Y84963D01*
X8735Y84963D01*
X15429Y79234D02*
X15427Y79156D01*
X15422Y79078D01*
X15412Y79001D01*
X15399Y78924D01*
X15383Y78848D01*
X15363Y78773D01*
X15339Y78699D01*
X15312Y78626D01*
X15281Y78554D01*
X15247Y78484D01*
X15210Y78416D01*
X15169Y78349D01*
X15125Y78284D01*
X15079Y78222D01*
X15029Y78162D01*
X14977Y78104D01*
X14922Y78049D01*
X14864Y77997D01*
X14804Y77947D01*
X14742Y77901D01*
X14677Y77857D01*
X14611Y77816D01*
X14542Y77779D01*
X14472Y77745D01*
X14400Y77714D01*
X14327Y77687D01*
X14253Y77663D01*
X14178Y77643D01*
X14102Y77627D01*
X14025Y77614D01*
X13948Y77604D01*
X13870Y77599D01*
X13792Y77597D01*
X13678Y77599D01*
X13565Y77604D01*
X13451Y77614D01*
X13338Y77627D01*
X13226Y77644D01*
X13114Y77664D01*
X13003Y77688D01*
X12892Y77716D01*
X12783Y77747D01*
X12675Y77782D01*
X12568Y77821D01*
X12462Y77863D01*
X12358Y77908D01*
X12255Y77957D01*
X12154Y78010D01*
X12055Y78065D01*
X11957Y78124D01*
X11862Y78186D01*
X11769Y78251D01*
X11677Y78319D01*
X11589Y78390D01*
X11502Y78464D01*
X11418Y78541D01*
X11337Y78620D01*
X11541Y83326D02*
X11543Y83404D01*
X11548Y83482D01*
X11558Y83559D01*
X11571Y83636D01*
X11587Y83712D01*
X11607Y83787D01*
X11631Y83861D01*
X11658Y83934D01*
X11689Y84006D01*
X11723Y84076D01*
X11760Y84145D01*
X11801Y84211D01*
X11845Y84276D01*
X11891Y84338D01*
X11941Y84398D01*
X11993Y84456D01*
X12048Y84511D01*
X12106Y84563D01*
X12166Y84613D01*
X12228Y84659D01*
X12293Y84703D01*
X12360Y84744D01*
X12428Y84781D01*
X12498Y84815D01*
X12570Y84846D01*
X12643Y84873D01*
X12717Y84897D01*
X12792Y84917D01*
X12868Y84933D01*
X12945Y84946D01*
X13022Y84956D01*
X13100Y84961D01*
X13178Y84963D01*
X13288Y84961D01*
X13397Y84955D01*
X13507Y84945D01*
X13615Y84932D01*
X13724Y84914D01*
X13831Y84893D01*
X13938Y84867D01*
X14044Y84838D01*
X14149Y84806D01*
X14252Y84769D01*
X14354Y84729D01*
X14455Y84685D01*
X14554Y84637D01*
X14651Y84587D01*
X14746Y84532D01*
X14839Y84474D01*
X14930Y84413D01*
X15019Y84349D01*
X12359Y81893D02*
X12292Y81935D01*
X12227Y81979D01*
X12165Y82027D01*
X12105Y82077D01*
X12047Y82130D01*
X11992Y82186D01*
X11940Y82245D01*
X11890Y82305D01*
X11843Y82369D01*
X11800Y82434D01*
X11759Y82501D01*
X11722Y82570D01*
X11688Y82641D01*
X11657Y82713D01*
X11630Y82787D01*
X11606Y82861D01*
X11586Y82937D01*
X11570Y83014D01*
X11557Y83091D01*
X11547Y83169D01*
X11542Y83248D01*
X11540Y83326D01*
X14610Y80666D02*
X14676Y80624D01*
X14741Y80580D01*
X14803Y80533D01*
X14863Y80482D01*
X14921Y80429D01*
X14976Y80373D01*
X15029Y80315D01*
X15078Y80254D01*
X15125Y80191D01*
X15168Y80126D01*
X15209Y80059D01*
X15246Y79990D01*
X15280Y79919D01*
X15311Y79847D01*
X15338Y79773D01*
X15362Y79698D01*
X15382Y79623D01*
X15398Y79546D01*
X15411Y79469D01*
X15421Y79391D01*
X15426Y79312D01*
X15428Y79234D01*
X14610Y80666D02*
X12359Y81894D01*
X18486Y80462D02*
X23397Y80462D01*
X28257Y77597D02*
X28257Y84963D01*
X30303Y84963D02*
X26210Y84963D01*
X34596Y84963D02*
X34596Y77597D01*
X32550Y84963D02*
X36643Y84963D01*
X39637Y84963D02*
X39637Y77597D01*
X42911Y77597D01*
X8735Y59817D02*
X7098Y59817D01*
X7020Y59819D01*
X6942Y59824D01*
X6865Y59834D01*
X6788Y59847D01*
X6712Y59863D01*
X6637Y59883D01*
X6563Y59907D01*
X6490Y59934D01*
X6418Y59965D01*
X6348Y59999D01*
X6279Y60036D01*
X6213Y60077D01*
X6148Y60121D01*
X6086Y60167D01*
X6026Y60217D01*
X5968Y60269D01*
X5913Y60324D01*
X5861Y60382D01*
X5811Y60442D01*
X5765Y60504D01*
X5721Y60569D01*
X5680Y60636D01*
X5643Y60704D01*
X5609Y60774D01*
X5578Y60846D01*
X5551Y60919D01*
X5527Y60993D01*
X5507Y61068D01*
X5491Y61144D01*
X5478Y61221D01*
X5468Y61298D01*
X5463Y61376D01*
X5461Y61454D01*
X5461Y65546D01*
X5463Y65626D01*
X5469Y65706D01*
X5479Y65786D01*
X5492Y65865D01*
X5510Y65944D01*
X5531Y66021D01*
X5557Y66097D01*
X5586Y66172D01*
X5618Y66246D01*
X5654Y66318D01*
X5694Y66388D01*
X5737Y66455D01*
X5783Y66521D01*
X5833Y66584D01*
X5885Y66645D01*
X5940Y66704D01*
X5999Y66759D01*
X6059Y66811D01*
X6123Y66861D01*
X6189Y66907D01*
X6256Y66950D01*
X6326Y66990D01*
X6398Y67026D01*
X6472Y67058D01*
X6546Y67087D01*
X6623Y67113D01*
X6700Y67134D01*
X6779Y67152D01*
X6858Y67165D01*
X6938Y67175D01*
X7018Y67181D01*
X7098Y67183D01*
X8735Y67183D01*
X15429Y61454D02*
X15427Y61376D01*
X15422Y61298D01*
X15412Y61221D01*
X15399Y61144D01*
X15383Y61068D01*
X15363Y60993D01*
X15339Y60919D01*
X15312Y60846D01*
X15281Y60774D01*
X15247Y60704D01*
X15210Y60636D01*
X15169Y60569D01*
X15125Y60504D01*
X15079Y60442D01*
X15029Y60382D01*
X14977Y60324D01*
X14922Y60269D01*
X14864Y60217D01*
X14804Y60167D01*
X14742Y60121D01*
X14677Y60077D01*
X14611Y60036D01*
X14542Y59999D01*
X14472Y59965D01*
X14400Y59934D01*
X14327Y59907D01*
X14253Y59883D01*
X14178Y59863D01*
X14102Y59847D01*
X14025Y59834D01*
X13948Y59824D01*
X13870Y59819D01*
X13792Y59817D01*
X13678Y59819D01*
X13565Y59824D01*
X13451Y59834D01*
X13338Y59847D01*
X13226Y59864D01*
X13114Y59884D01*
X13003Y59908D01*
X12892Y59936D01*
X12783Y59967D01*
X12675Y60002D01*
X12568Y60041D01*
X12462Y60083D01*
X12358Y60128D01*
X12255Y60177D01*
X12154Y60230D01*
X12055Y60285D01*
X11957Y60344D01*
X11862Y60406D01*
X11769Y60471D01*
X11677Y60539D01*
X11589Y60610D01*
X11502Y60684D01*
X11418Y60761D01*
X11337Y60840D01*
X11541Y65546D02*
X11543Y65624D01*
X11548Y65702D01*
X11558Y65779D01*
X11571Y65856D01*
X11587Y65932D01*
X11607Y66007D01*
X11631Y66081D01*
X11658Y66154D01*
X11689Y66226D01*
X11723Y66296D01*
X11760Y66365D01*
X11801Y66431D01*
X11845Y66496D01*
X11891Y66558D01*
X11941Y66618D01*
X11993Y66676D01*
X12048Y66731D01*
X12106Y66783D01*
X12166Y66833D01*
X12228Y66879D01*
X12293Y66923D01*
X12360Y66964D01*
X12428Y67001D01*
X12498Y67035D01*
X12570Y67066D01*
X12643Y67093D01*
X12717Y67117D01*
X12792Y67137D01*
X12868Y67153D01*
X12945Y67166D01*
X13022Y67176D01*
X13100Y67181D01*
X13178Y67183D01*
X13288Y67181D01*
X13397Y67175D01*
X13507Y67165D01*
X13615Y67152D01*
X13724Y67134D01*
X13831Y67113D01*
X13938Y67087D01*
X14044Y67058D01*
X14149Y67026D01*
X14252Y66989D01*
X14354Y66949D01*
X14455Y66905D01*
X14554Y66857D01*
X14651Y66807D01*
X14746Y66752D01*
X14839Y66694D01*
X14930Y66633D01*
X15019Y66569D01*
X12359Y64113D02*
X12292Y64155D01*
X12227Y64199D01*
X12165Y64247D01*
X12105Y64297D01*
X12047Y64350D01*
X11992Y64406D01*
X11940Y64465D01*
X11890Y64525D01*
X11843Y64589D01*
X11800Y64654D01*
X11759Y64721D01*
X11722Y64790D01*
X11688Y64861D01*
X11657Y64933D01*
X11630Y65007D01*
X11606Y65081D01*
X11586Y65157D01*
X11570Y65234D01*
X11557Y65311D01*
X11547Y65389D01*
X11542Y65468D01*
X11540Y65546D01*
X14610Y62886D02*
X14676Y62844D01*
X14741Y62800D01*
X14803Y62753D01*
X14863Y62702D01*
X14921Y62649D01*
X14976Y62593D01*
X15029Y62535D01*
X15078Y62474D01*
X15125Y62411D01*
X15168Y62346D01*
X15209Y62279D01*
X15246Y62210D01*
X15280Y62139D01*
X15311Y62067D01*
X15338Y61993D01*
X15362Y61918D01*
X15382Y61843D01*
X15398Y61766D01*
X15411Y61689D01*
X15421Y61611D01*
X15426Y61532D01*
X15428Y61454D01*
X14610Y62886D02*
X12359Y64114D01*
X18486Y62682D02*
X23397Y62682D01*
X26698Y66365D02*
X26698Y67183D01*
X30790Y67183D01*
X28744Y59817D01*
X34013Y59817D02*
X36469Y59817D01*
X36547Y59819D01*
X36625Y59824D01*
X36702Y59834D01*
X36779Y59847D01*
X36855Y59863D01*
X36930Y59883D01*
X37004Y59907D01*
X37077Y59934D01*
X37149Y59965D01*
X37219Y59999D01*
X37288Y60036D01*
X37354Y60077D01*
X37419Y60121D01*
X37481Y60167D01*
X37541Y60217D01*
X37599Y60269D01*
X37654Y60324D01*
X37706Y60382D01*
X37756Y60442D01*
X37802Y60504D01*
X37846Y60569D01*
X37887Y60636D01*
X37924Y60704D01*
X37958Y60774D01*
X37989Y60846D01*
X38016Y60919D01*
X38040Y60993D01*
X38060Y61068D01*
X38076Y61144D01*
X38089Y61221D01*
X38099Y61298D01*
X38104Y61376D01*
X38106Y61454D01*
X38106Y62272D01*
X38104Y62350D01*
X38099Y62428D01*
X38089Y62505D01*
X38076Y62582D01*
X38060Y62658D01*
X38040Y62733D01*
X38016Y62807D01*
X37989Y62880D01*
X37958Y62952D01*
X37924Y63022D01*
X37887Y63091D01*
X37846Y63157D01*
X37802Y63222D01*
X37756Y63284D01*
X37706Y63344D01*
X37654Y63402D01*
X37599Y63457D01*
X37541Y63509D01*
X37481Y63559D01*
X37419Y63605D01*
X37354Y63649D01*
X37288Y63690D01*
X37219Y63727D01*
X37149Y63761D01*
X37077Y63792D01*
X37004Y63819D01*
X36930Y63843D01*
X36855Y63863D01*
X36779Y63879D01*
X36702Y63892D01*
X36625Y63902D01*
X36547Y63907D01*
X36469Y63909D01*
X34013Y63909D01*
X34013Y67183D01*
X38106Y67183D01*
X41407Y64728D02*
X41409Y64824D01*
X41415Y64921D01*
X41424Y65017D01*
X41437Y65112D01*
X41454Y65207D01*
X41475Y65301D01*
X41499Y65394D01*
X41527Y65487D01*
X41559Y65578D01*
X41594Y65667D01*
X41633Y65756D01*
X41675Y65843D01*
X41720Y65928D01*
X41769Y66011D01*
X41821Y66092D01*
X41876Y66171D01*
X41934Y66248D01*
X41995Y66322D01*
X42059Y66394D01*
X42126Y66464D01*
X42196Y66531D01*
X42268Y66595D01*
X42342Y66656D01*
X42419Y66714D01*
X42498Y66769D01*
X42579Y66821D01*
X42662Y66870D01*
X42747Y66915D01*
X42834Y66957D01*
X42923Y66996D01*
X43012Y67031D01*
X43103Y67063D01*
X43196Y67091D01*
X43289Y67115D01*
X43383Y67136D01*
X43478Y67153D01*
X43573Y67166D01*
X43669Y67175D01*
X43766Y67181D01*
X43862Y67183D01*
X41407Y64728D02*
X41407Y63909D01*
X41409Y63816D01*
X41414Y63724D01*
X41424Y63631D01*
X41437Y63539D01*
X41453Y63448D01*
X41474Y63357D01*
X41497Y63268D01*
X41525Y63179D01*
X41556Y63091D01*
X41590Y63005D01*
X41628Y62921D01*
X41669Y62837D01*
X41714Y62756D01*
X41762Y62676D01*
X41813Y62599D01*
X41867Y62523D01*
X41924Y62450D01*
X41983Y62379D01*
X42046Y62310D01*
X42111Y62244D01*
X42179Y62181D01*
X42250Y62121D01*
X42322Y62063D01*
X42397Y62008D01*
X42475Y61957D01*
X42554Y61908D01*
X42635Y61863D01*
X42635Y59817D01*
X41407Y59817D01*
X46317Y64728D02*
X46315Y64824D01*
X46309Y64921D01*
X46300Y65017D01*
X46287Y65112D01*
X46270Y65207D01*
X46249Y65301D01*
X46225Y65394D01*
X46197Y65487D01*
X46165Y65578D01*
X46130Y65667D01*
X46091Y65756D01*
X46049Y65843D01*
X46004Y65928D01*
X45955Y66011D01*
X45903Y66092D01*
X45848Y66171D01*
X45790Y66248D01*
X45729Y66322D01*
X45665Y66394D01*
X45598Y66464D01*
X45528Y66531D01*
X45456Y66595D01*
X45382Y66656D01*
X45305Y66714D01*
X45226Y66769D01*
X45145Y66821D01*
X45062Y66870D01*
X44977Y66915D01*
X44890Y66957D01*
X44801Y66996D01*
X44712Y67031D01*
X44621Y67063D01*
X44528Y67091D01*
X44435Y67115D01*
X44341Y67136D01*
X44246Y67153D01*
X44151Y67166D01*
X44055Y67175D01*
X43958Y67181D01*
X43862Y67183D01*
X46318Y64728D02*
X46318Y63909D01*
X46316Y63816D01*
X46311Y63724D01*
X46301Y63631D01*
X46288Y63539D01*
X46272Y63448D01*
X46251Y63357D01*
X46228Y63268D01*
X46200Y63179D01*
X46169Y63091D01*
X46135Y63005D01*
X46097Y62921D01*
X46056Y62837D01*
X46011Y62756D01*
X45963Y62676D01*
X45912Y62599D01*
X45858Y62523D01*
X45801Y62450D01*
X45742Y62379D01*
X45679Y62310D01*
X45614Y62244D01*
X45546Y62181D01*
X45475Y62121D01*
X45403Y62063D01*
X45328Y62008D01*
X45250Y61957D01*
X45171Y61908D01*
X45090Y61863D01*
X45090Y59817D01*
X46318Y59817D01*
X7507Y46129D02*
X5461Y46129D01*
X7507Y46129D02*
X7596Y46127D01*
X7685Y46121D01*
X7774Y46111D01*
X7862Y46098D01*
X7950Y46081D01*
X8037Y46059D01*
X8122Y46034D01*
X8207Y46006D01*
X8290Y45973D01*
X8372Y45937D01*
X8452Y45898D01*
X8530Y45855D01*
X8606Y45809D01*
X8681Y45759D01*
X8753Y45706D01*
X8822Y45650D01*
X8889Y45591D01*
X8954Y45530D01*
X9015Y45465D01*
X9074Y45398D01*
X9130Y45329D01*
X9183Y45257D01*
X9233Y45182D01*
X9279Y45106D01*
X9322Y45028D01*
X9361Y44948D01*
X9397Y44866D01*
X9430Y44783D01*
X9458Y44698D01*
X9483Y44613D01*
X9505Y44526D01*
X9522Y44438D01*
X9535Y44350D01*
X9545Y44261D01*
X9551Y44172D01*
X9553Y44083D01*
X9551Y43994D01*
X9545Y43905D01*
X9535Y43816D01*
X9522Y43728D01*
X9505Y43640D01*
X9483Y43553D01*
X9458Y43468D01*
X9430Y43383D01*
X9397Y43300D01*
X9361Y43218D01*
X9322Y43138D01*
X9279Y43060D01*
X9233Y42984D01*
X9183Y42909D01*
X9130Y42837D01*
X9074Y42768D01*
X9015Y42701D01*
X8954Y42636D01*
X8889Y42575D01*
X8822Y42516D01*
X8753Y42460D01*
X8681Y42407D01*
X8606Y42357D01*
X8530Y42311D01*
X8452Y42268D01*
X8372Y42229D01*
X8290Y42193D01*
X8207Y42160D01*
X8122Y42132D01*
X8037Y42107D01*
X7950Y42085D01*
X7862Y42068D01*
X7774Y42055D01*
X7685Y42045D01*
X7596Y42039D01*
X7507Y42037D01*
X5461Y42037D01*
X5461Y49403D01*
X7507Y49403D01*
X7586Y49401D01*
X7665Y49395D01*
X7744Y49386D01*
X7822Y49373D01*
X7899Y49355D01*
X7975Y49335D01*
X8050Y49310D01*
X8124Y49282D01*
X8197Y49251D01*
X8268Y49215D01*
X8337Y49177D01*
X8404Y49135D01*
X8469Y49090D01*
X8532Y49042D01*
X8593Y48991D01*
X8650Y48937D01*
X8706Y48881D01*
X8758Y48822D01*
X8808Y48760D01*
X8854Y48696D01*
X8898Y48630D01*
X8938Y48562D01*
X8974Y48492D01*
X9008Y48420D01*
X9038Y48346D01*
X9064Y48272D01*
X9087Y48196D01*
X9105Y48119D01*
X9121Y48042D01*
X9132Y47963D01*
X9140Y47885D01*
X9144Y47806D01*
X9144Y47726D01*
X9140Y47647D01*
X9132Y47569D01*
X9121Y47490D01*
X9105Y47413D01*
X9087Y47336D01*
X9064Y47260D01*
X9038Y47186D01*
X9008Y47112D01*
X8974Y47040D01*
X8938Y46970D01*
X8898Y46902D01*
X8854Y46836D01*
X8808Y46772D01*
X8758Y46710D01*
X8706Y46651D01*
X8650Y46595D01*
X8593Y46541D01*
X8532Y46490D01*
X8469Y46442D01*
X8404Y46397D01*
X8337Y46355D01*
X8268Y46317D01*
X8197Y46281D01*
X8124Y46250D01*
X8050Y46222D01*
X7975Y46197D01*
X7899Y46177D01*
X7822Y46159D01*
X7744Y46146D01*
X7665Y46137D01*
X7586Y46131D01*
X7507Y46129D01*
X12674Y49403D02*
X12674Y42037D01*
X15948Y42037D01*
X18998Y44083D02*
X18998Y49403D01*
X18998Y44083D02*
X19000Y43994D01*
X19006Y43905D01*
X19016Y43816D01*
X19029Y43728D01*
X19046Y43640D01*
X19068Y43553D01*
X19093Y43468D01*
X19121Y43383D01*
X19154Y43300D01*
X19190Y43218D01*
X19229Y43138D01*
X19272Y43060D01*
X19318Y42984D01*
X19368Y42909D01*
X19421Y42837D01*
X19477Y42768D01*
X19536Y42701D01*
X19597Y42636D01*
X19662Y42575D01*
X19729Y42516D01*
X19798Y42460D01*
X19870Y42407D01*
X19945Y42357D01*
X20021Y42311D01*
X20099Y42268D01*
X20179Y42229D01*
X20261Y42193D01*
X20344Y42160D01*
X20429Y42132D01*
X20514Y42107D01*
X20601Y42085D01*
X20689Y42068D01*
X20777Y42055D01*
X20866Y42045D01*
X20955Y42039D01*
X21044Y42037D01*
X21133Y42039D01*
X21222Y42045D01*
X21311Y42055D01*
X21399Y42068D01*
X21487Y42085D01*
X21574Y42107D01*
X21659Y42132D01*
X21744Y42160D01*
X21827Y42193D01*
X21909Y42229D01*
X21989Y42268D01*
X22067Y42311D01*
X22143Y42357D01*
X22218Y42407D01*
X22290Y42460D01*
X22359Y42516D01*
X22426Y42575D01*
X22491Y42636D01*
X22552Y42701D01*
X22611Y42768D01*
X22667Y42837D01*
X22720Y42909D01*
X22770Y42984D01*
X22816Y43060D01*
X22859Y43138D01*
X22898Y43218D01*
X22934Y43300D01*
X22967Y43383D01*
X22995Y43468D01*
X23020Y43553D01*
X23042Y43640D01*
X23059Y43728D01*
X23072Y43816D01*
X23082Y43905D01*
X23088Y43994D01*
X23090Y44083D01*
X23091Y44083D02*
X23091Y49403D01*
X26817Y42037D02*
X30091Y42037D01*
X26817Y42037D02*
X26817Y49403D01*
X30091Y49403D01*
X29272Y46129D02*
X26817Y46129D01*
X9553Y28349D02*
X8326Y28349D01*
X9553Y28349D02*
X9553Y24257D01*
X7098Y24257D01*
X7020Y24259D01*
X6942Y24264D01*
X6865Y24274D01*
X6788Y24287D01*
X6712Y24303D01*
X6637Y24323D01*
X6563Y24347D01*
X6490Y24374D01*
X6418Y24405D01*
X6348Y24439D01*
X6279Y24476D01*
X6213Y24517D01*
X6148Y24561D01*
X6086Y24607D01*
X6026Y24657D01*
X5968Y24709D01*
X5913Y24764D01*
X5861Y24822D01*
X5811Y24882D01*
X5765Y24944D01*
X5721Y25009D01*
X5680Y25076D01*
X5643Y25144D01*
X5609Y25214D01*
X5578Y25286D01*
X5551Y25359D01*
X5527Y25433D01*
X5507Y25508D01*
X5491Y25584D01*
X5478Y25661D01*
X5468Y25738D01*
X5463Y25816D01*
X5461Y25894D01*
X5461Y29986D01*
X5463Y30066D01*
X5469Y30146D01*
X5479Y30226D01*
X5492Y30305D01*
X5510Y30384D01*
X5531Y30461D01*
X5557Y30537D01*
X5586Y30612D01*
X5618Y30686D01*
X5654Y30758D01*
X5694Y30828D01*
X5737Y30895D01*
X5783Y30961D01*
X5833Y31024D01*
X5885Y31085D01*
X5940Y31144D01*
X5999Y31199D01*
X6059Y31251D01*
X6123Y31301D01*
X6189Y31347D01*
X6256Y31390D01*
X6326Y31430D01*
X6398Y31466D01*
X6472Y31498D01*
X6546Y31527D01*
X6623Y31553D01*
X6700Y31574D01*
X6779Y31592D01*
X6858Y31605D01*
X6938Y31615D01*
X7018Y31621D01*
X7098Y31623D01*
X9553Y31623D01*
X13315Y31623D02*
X13315Y24257D01*
X13315Y31623D02*
X15361Y31623D01*
X15450Y31621D01*
X15539Y31615D01*
X15628Y31605D01*
X15716Y31592D01*
X15804Y31575D01*
X15891Y31553D01*
X15976Y31528D01*
X16061Y31500D01*
X16144Y31467D01*
X16226Y31431D01*
X16306Y31392D01*
X16384Y31349D01*
X16460Y31303D01*
X16535Y31253D01*
X16607Y31200D01*
X16676Y31144D01*
X16743Y31085D01*
X16808Y31024D01*
X16869Y30959D01*
X16928Y30892D01*
X16984Y30823D01*
X17037Y30751D01*
X17087Y30676D01*
X17133Y30600D01*
X17176Y30522D01*
X17215Y30442D01*
X17251Y30360D01*
X17284Y30277D01*
X17312Y30192D01*
X17337Y30107D01*
X17359Y30020D01*
X17376Y29932D01*
X17389Y29844D01*
X17399Y29755D01*
X17405Y29666D01*
X17407Y29577D01*
X17405Y29488D01*
X17399Y29399D01*
X17389Y29310D01*
X17376Y29222D01*
X17359Y29134D01*
X17337Y29047D01*
X17312Y28962D01*
X17284Y28877D01*
X17251Y28794D01*
X17215Y28712D01*
X17176Y28632D01*
X17133Y28554D01*
X17087Y28478D01*
X17037Y28403D01*
X16984Y28331D01*
X16928Y28262D01*
X16869Y28195D01*
X16808Y28130D01*
X16743Y28069D01*
X16676Y28010D01*
X16607Y27954D01*
X16535Y27901D01*
X16460Y27851D01*
X16384Y27805D01*
X16306Y27762D01*
X16226Y27723D01*
X16144Y27687D01*
X16061Y27654D01*
X15976Y27626D01*
X15891Y27601D01*
X15804Y27579D01*
X15716Y27562D01*
X15628Y27549D01*
X15539Y27539D01*
X15450Y27533D01*
X15361Y27531D01*
X13315Y27531D01*
X15770Y27531D02*
X17407Y24257D01*
X20839Y24257D02*
X24112Y24257D01*
X20839Y24257D02*
X20839Y31623D01*
X24112Y31623D01*
X23294Y28349D02*
X20839Y28349D01*
X27178Y24257D02*
X30452Y24257D01*
X27178Y24257D02*
X27178Y31623D01*
X30452Y31623D01*
X29634Y28349D02*
X27178Y28349D01*
X33503Y31623D02*
X33503Y24257D01*
X37595Y24257D02*
X33503Y31623D01*
X37595Y31623D02*
X37595Y24257D01*
X5461Y13843D02*
X5461Y6477D01*
X5461Y13843D02*
X7507Y13843D01*
X7596Y13841D01*
X7685Y13835D01*
X7774Y13825D01*
X7862Y13812D01*
X7950Y13795D01*
X8037Y13773D01*
X8122Y13748D01*
X8207Y13720D01*
X8290Y13687D01*
X8372Y13651D01*
X8452Y13612D01*
X8530Y13569D01*
X8606Y13523D01*
X8681Y13473D01*
X8753Y13420D01*
X8822Y13364D01*
X8889Y13305D01*
X8954Y13244D01*
X9015Y13179D01*
X9074Y13112D01*
X9130Y13043D01*
X9183Y12971D01*
X9233Y12896D01*
X9279Y12820D01*
X9322Y12742D01*
X9361Y12662D01*
X9397Y12580D01*
X9430Y12497D01*
X9458Y12412D01*
X9483Y12327D01*
X9505Y12240D01*
X9522Y12152D01*
X9535Y12064D01*
X9545Y11975D01*
X9551Y11886D01*
X9553Y11797D01*
X9551Y11708D01*
X9545Y11619D01*
X9535Y11530D01*
X9522Y11442D01*
X9505Y11354D01*
X9483Y11267D01*
X9458Y11182D01*
X9430Y11097D01*
X9397Y11014D01*
X9361Y10932D01*
X9322Y10852D01*
X9279Y10774D01*
X9233Y10698D01*
X9183Y10623D01*
X9130Y10551D01*
X9074Y10482D01*
X9015Y10415D01*
X8954Y10350D01*
X8889Y10289D01*
X8822Y10230D01*
X8753Y10174D01*
X8681Y10121D01*
X8606Y10071D01*
X8530Y10025D01*
X8452Y9982D01*
X8372Y9943D01*
X8290Y9907D01*
X8207Y9874D01*
X8122Y9846D01*
X8037Y9821D01*
X7950Y9799D01*
X7862Y9782D01*
X7774Y9769D01*
X7685Y9759D01*
X7596Y9753D01*
X7507Y9751D01*
X5461Y9751D01*
X7916Y9751D02*
X9553Y6477D01*
X12985Y6477D02*
X16258Y6477D01*
X12985Y6477D02*
X12985Y13843D01*
X16258Y13843D01*
X15440Y10569D02*
X12985Y10569D01*
X19309Y13843D02*
X19309Y6477D01*
X19309Y13843D02*
X21355Y13843D01*
X21444Y13841D01*
X21533Y13835D01*
X21622Y13825D01*
X21710Y13812D01*
X21798Y13795D01*
X21885Y13773D01*
X21970Y13748D01*
X22055Y13720D01*
X22138Y13687D01*
X22220Y13651D01*
X22300Y13612D01*
X22378Y13569D01*
X22454Y13523D01*
X22529Y13473D01*
X22601Y13420D01*
X22670Y13364D01*
X22737Y13305D01*
X22802Y13244D01*
X22863Y13179D01*
X22922Y13112D01*
X22978Y13043D01*
X23031Y12971D01*
X23081Y12896D01*
X23127Y12820D01*
X23170Y12742D01*
X23209Y12662D01*
X23245Y12580D01*
X23278Y12497D01*
X23306Y12412D01*
X23331Y12327D01*
X23353Y12240D01*
X23370Y12152D01*
X23383Y12064D01*
X23393Y11975D01*
X23399Y11886D01*
X23401Y11797D01*
X23401Y8523D01*
X23399Y8434D01*
X23393Y8345D01*
X23383Y8256D01*
X23370Y8168D01*
X23353Y8080D01*
X23331Y7993D01*
X23306Y7908D01*
X23278Y7823D01*
X23245Y7740D01*
X23209Y7658D01*
X23170Y7578D01*
X23127Y7500D01*
X23081Y7424D01*
X23031Y7349D01*
X22978Y7277D01*
X22922Y7208D01*
X22863Y7141D01*
X22802Y7076D01*
X22737Y7015D01*
X22670Y6956D01*
X22601Y6900D01*
X22529Y6847D01*
X22454Y6797D01*
X22378Y6751D01*
X22300Y6708D01*
X22220Y6669D01*
X22138Y6633D01*
X22055Y6600D01*
X21970Y6572D01*
X21885Y6547D01*
X21798Y6525D01*
X21710Y6508D01*
X21622Y6495D01*
X21533Y6485D01*
X21444Y6479D01*
X21355Y6477D01*
X19309Y6477D01*
X177137Y80335D02*
X177137Y81153D01*
X181229Y81153D01*
X179183Y73787D01*
X225171Y73787D02*
X227217Y73787D01*
X227306Y73789D01*
X227395Y73795D01*
X227484Y73805D01*
X227572Y73818D01*
X227660Y73835D01*
X227747Y73857D01*
X227832Y73882D01*
X227917Y73910D01*
X228000Y73943D01*
X228082Y73979D01*
X228162Y74018D01*
X228240Y74061D01*
X228316Y74107D01*
X228391Y74157D01*
X228463Y74210D01*
X228532Y74266D01*
X228599Y74325D01*
X228664Y74386D01*
X228725Y74451D01*
X228784Y74518D01*
X228840Y74587D01*
X228893Y74659D01*
X228943Y74734D01*
X228989Y74810D01*
X229032Y74888D01*
X229071Y74968D01*
X229107Y75050D01*
X229140Y75133D01*
X229168Y75218D01*
X229193Y75303D01*
X229215Y75390D01*
X229232Y75478D01*
X229245Y75566D01*
X229255Y75655D01*
X229261Y75744D01*
X229263Y75833D01*
X229261Y75922D01*
X229255Y76011D01*
X229245Y76100D01*
X229232Y76188D01*
X229215Y76276D01*
X229193Y76363D01*
X229168Y76448D01*
X229140Y76533D01*
X229107Y76616D01*
X229071Y76698D01*
X229032Y76778D01*
X228989Y76856D01*
X228943Y76932D01*
X228893Y77007D01*
X228840Y77079D01*
X228784Y77148D01*
X228725Y77215D01*
X228664Y77280D01*
X228599Y77341D01*
X228532Y77400D01*
X228463Y77456D01*
X228391Y77509D01*
X228316Y77559D01*
X228240Y77605D01*
X228162Y77648D01*
X228082Y77687D01*
X228000Y77723D01*
X227917Y77756D01*
X227832Y77784D01*
X227747Y77809D01*
X227660Y77831D01*
X227572Y77848D01*
X227484Y77861D01*
X227395Y77871D01*
X227306Y77877D01*
X227217Y77879D01*
X227626Y81153D02*
X225171Y81153D01*
X227626Y81153D02*
X227705Y81151D01*
X227784Y81145D01*
X227863Y81136D01*
X227941Y81123D01*
X228018Y81105D01*
X228094Y81085D01*
X228169Y81060D01*
X228243Y81032D01*
X228316Y81001D01*
X228387Y80965D01*
X228456Y80927D01*
X228523Y80885D01*
X228588Y80840D01*
X228651Y80792D01*
X228712Y80741D01*
X228769Y80687D01*
X228825Y80631D01*
X228877Y80572D01*
X228927Y80510D01*
X228973Y80446D01*
X229017Y80380D01*
X229057Y80312D01*
X229093Y80242D01*
X229127Y80170D01*
X229157Y80096D01*
X229183Y80022D01*
X229206Y79946D01*
X229224Y79869D01*
X229240Y79792D01*
X229251Y79713D01*
X229259Y79635D01*
X229263Y79556D01*
X229263Y79476D01*
X229259Y79397D01*
X229251Y79319D01*
X229240Y79240D01*
X229224Y79163D01*
X229206Y79086D01*
X229183Y79010D01*
X229157Y78936D01*
X229127Y78862D01*
X229093Y78790D01*
X229057Y78720D01*
X229017Y78652D01*
X228973Y78586D01*
X228927Y78522D01*
X228877Y78460D01*
X228825Y78401D01*
X228769Y78345D01*
X228712Y78291D01*
X228651Y78240D01*
X228588Y78192D01*
X228523Y78147D01*
X228456Y78105D01*
X228387Y78067D01*
X228316Y78031D01*
X228243Y78000D01*
X228169Y77972D01*
X228094Y77947D01*
X228018Y77927D01*
X227941Y77909D01*
X227863Y77896D01*
X227784Y77887D01*
X227705Y77881D01*
X227626Y77879D01*
X225989Y77879D01*
X264654Y12954D02*
X264654Y5588D01*
X264654Y12954D02*
X266700Y12954D01*
X266789Y12952D01*
X266878Y12946D01*
X266967Y12936D01*
X267055Y12923D01*
X267143Y12906D01*
X267230Y12884D01*
X267315Y12859D01*
X267400Y12831D01*
X267483Y12798D01*
X267565Y12762D01*
X267645Y12723D01*
X267723Y12680D01*
X267799Y12634D01*
X267874Y12584D01*
X267946Y12531D01*
X268015Y12475D01*
X268082Y12416D01*
X268147Y12355D01*
X268208Y12290D01*
X268267Y12223D01*
X268323Y12154D01*
X268376Y12082D01*
X268426Y12007D01*
X268472Y11931D01*
X268515Y11853D01*
X268554Y11773D01*
X268590Y11691D01*
X268623Y11608D01*
X268651Y11523D01*
X268676Y11438D01*
X268698Y11351D01*
X268715Y11263D01*
X268728Y11175D01*
X268738Y11086D01*
X268744Y10997D01*
X268746Y10908D01*
X268744Y10819D01*
X268738Y10730D01*
X268728Y10641D01*
X268715Y10553D01*
X268698Y10465D01*
X268676Y10378D01*
X268651Y10293D01*
X268623Y10208D01*
X268590Y10125D01*
X268554Y10043D01*
X268515Y9963D01*
X268472Y9885D01*
X268426Y9809D01*
X268376Y9734D01*
X268323Y9662D01*
X268267Y9593D01*
X268208Y9526D01*
X268147Y9461D01*
X268082Y9400D01*
X268015Y9341D01*
X267946Y9285D01*
X267874Y9232D01*
X267799Y9182D01*
X267723Y9136D01*
X267645Y9093D01*
X267565Y9054D01*
X267483Y9018D01*
X267400Y8985D01*
X267315Y8957D01*
X267230Y8932D01*
X267143Y8910D01*
X267055Y8893D01*
X266967Y8880D01*
X266878Y8870D01*
X266789Y8864D01*
X266700Y8862D01*
X264654Y8862D01*
X267109Y8862D02*
X268746Y5588D01*
X239590Y5588D02*
X237953Y5588D01*
X237875Y5590D01*
X237797Y5595D01*
X237720Y5605D01*
X237643Y5618D01*
X237567Y5634D01*
X237492Y5654D01*
X237418Y5678D01*
X237345Y5705D01*
X237273Y5736D01*
X237203Y5770D01*
X237135Y5807D01*
X237068Y5848D01*
X237003Y5892D01*
X236941Y5938D01*
X236881Y5988D01*
X236823Y6040D01*
X236768Y6095D01*
X236716Y6153D01*
X236666Y6213D01*
X236620Y6275D01*
X236576Y6340D01*
X236535Y6407D01*
X236498Y6475D01*
X236464Y6545D01*
X236433Y6617D01*
X236406Y6690D01*
X236382Y6764D01*
X236362Y6839D01*
X236346Y6915D01*
X236333Y6992D01*
X236323Y7069D01*
X236318Y7147D01*
X236316Y7225D01*
X236316Y11317D01*
X236318Y11397D01*
X236324Y11477D01*
X236334Y11557D01*
X236347Y11636D01*
X236365Y11715D01*
X236386Y11792D01*
X236412Y11868D01*
X236441Y11943D01*
X236473Y12017D01*
X236509Y12089D01*
X236549Y12159D01*
X236592Y12226D01*
X236638Y12292D01*
X236688Y12355D01*
X236740Y12416D01*
X236795Y12475D01*
X236854Y12530D01*
X236914Y12582D01*
X236978Y12632D01*
X237044Y12678D01*
X237111Y12721D01*
X237181Y12761D01*
X237253Y12797D01*
X237327Y12829D01*
X237401Y12858D01*
X237478Y12884D01*
X237555Y12905D01*
X237634Y12923D01*
X237713Y12936D01*
X237793Y12946D01*
X237873Y12952D01*
X237953Y12954D01*
X239590Y12954D01*
X246284Y7225D02*
X246282Y7147D01*
X246277Y7069D01*
X246267Y6992D01*
X246254Y6915D01*
X246238Y6839D01*
X246218Y6764D01*
X246194Y6690D01*
X246167Y6617D01*
X246136Y6545D01*
X246102Y6475D01*
X246065Y6407D01*
X246024Y6340D01*
X245980Y6275D01*
X245934Y6213D01*
X245884Y6153D01*
X245832Y6095D01*
X245777Y6040D01*
X245719Y5988D01*
X245659Y5938D01*
X245597Y5892D01*
X245532Y5848D01*
X245466Y5807D01*
X245397Y5770D01*
X245327Y5736D01*
X245255Y5705D01*
X245182Y5678D01*
X245108Y5654D01*
X245033Y5634D01*
X244957Y5618D01*
X244880Y5605D01*
X244803Y5595D01*
X244725Y5590D01*
X244647Y5588D01*
X244533Y5590D01*
X244420Y5595D01*
X244306Y5605D01*
X244193Y5618D01*
X244081Y5635D01*
X243969Y5655D01*
X243858Y5679D01*
X243747Y5707D01*
X243638Y5738D01*
X243530Y5773D01*
X243423Y5812D01*
X243317Y5854D01*
X243213Y5899D01*
X243110Y5948D01*
X243009Y6001D01*
X242910Y6056D01*
X242812Y6115D01*
X242717Y6177D01*
X242624Y6242D01*
X242532Y6310D01*
X242444Y6381D01*
X242357Y6455D01*
X242273Y6532D01*
X242192Y6611D01*
X242396Y11317D02*
X242398Y11395D01*
X242403Y11473D01*
X242413Y11550D01*
X242426Y11627D01*
X242442Y11703D01*
X242462Y11778D01*
X242486Y11852D01*
X242513Y11925D01*
X242544Y11997D01*
X242578Y12067D01*
X242615Y12136D01*
X242656Y12202D01*
X242700Y12267D01*
X242746Y12329D01*
X242796Y12389D01*
X242848Y12447D01*
X242903Y12502D01*
X242961Y12554D01*
X243021Y12604D01*
X243083Y12650D01*
X243148Y12694D01*
X243215Y12735D01*
X243283Y12772D01*
X243353Y12806D01*
X243425Y12837D01*
X243498Y12864D01*
X243572Y12888D01*
X243647Y12908D01*
X243723Y12924D01*
X243800Y12937D01*
X243877Y12947D01*
X243955Y12952D01*
X244033Y12954D01*
X244143Y12952D01*
X244252Y12946D01*
X244362Y12936D01*
X244470Y12923D01*
X244579Y12905D01*
X244686Y12884D01*
X244793Y12858D01*
X244899Y12829D01*
X245004Y12797D01*
X245107Y12760D01*
X245209Y12720D01*
X245310Y12676D01*
X245409Y12628D01*
X245506Y12578D01*
X245601Y12523D01*
X245694Y12465D01*
X245785Y12404D01*
X245874Y12340D01*
X243215Y9884D02*
X243148Y9926D01*
X243083Y9970D01*
X243021Y10018D01*
X242961Y10068D01*
X242903Y10121D01*
X242848Y10177D01*
X242796Y10236D01*
X242746Y10296D01*
X242699Y10360D01*
X242656Y10425D01*
X242615Y10492D01*
X242578Y10561D01*
X242544Y10632D01*
X242513Y10704D01*
X242486Y10778D01*
X242462Y10852D01*
X242442Y10928D01*
X242426Y11005D01*
X242413Y11082D01*
X242403Y11160D01*
X242398Y11239D01*
X242396Y11317D01*
X245465Y8657D02*
X245531Y8615D01*
X245596Y8571D01*
X245658Y8524D01*
X245718Y8473D01*
X245776Y8420D01*
X245831Y8364D01*
X245884Y8306D01*
X245933Y8245D01*
X245980Y8182D01*
X246023Y8117D01*
X246064Y8050D01*
X246101Y7981D01*
X246135Y7910D01*
X246166Y7838D01*
X246193Y7764D01*
X246217Y7689D01*
X246237Y7614D01*
X246253Y7537D01*
X246266Y7460D01*
X246276Y7382D01*
X246281Y7303D01*
X246283Y7225D01*
X245465Y8657D02*
X243215Y9885D01*
X267518Y67338D02*
X268746Y67338D01*
X268746Y63246D01*
X266291Y63246D01*
X266213Y63248D01*
X266135Y63253D01*
X266058Y63263D01*
X265981Y63276D01*
X265905Y63292D01*
X265830Y63312D01*
X265756Y63336D01*
X265683Y63363D01*
X265611Y63394D01*
X265541Y63428D01*
X265473Y63465D01*
X265406Y63506D01*
X265341Y63550D01*
X265279Y63596D01*
X265219Y63646D01*
X265161Y63698D01*
X265106Y63753D01*
X265054Y63811D01*
X265004Y63871D01*
X264958Y63933D01*
X264914Y63998D01*
X264873Y64065D01*
X264836Y64133D01*
X264802Y64203D01*
X264771Y64275D01*
X264744Y64348D01*
X264720Y64422D01*
X264700Y64497D01*
X264684Y64573D01*
X264671Y64650D01*
X264661Y64727D01*
X264656Y64805D01*
X264654Y64883D01*
X264654Y68975D01*
X264656Y69055D01*
X264662Y69135D01*
X264672Y69215D01*
X264685Y69294D01*
X264703Y69373D01*
X264724Y69450D01*
X264750Y69526D01*
X264779Y69601D01*
X264811Y69675D01*
X264847Y69747D01*
X264887Y69817D01*
X264930Y69884D01*
X264976Y69950D01*
X265026Y70013D01*
X265078Y70074D01*
X265133Y70133D01*
X265192Y70188D01*
X265252Y70240D01*
X265316Y70290D01*
X265382Y70336D01*
X265449Y70379D01*
X265519Y70419D01*
X265591Y70455D01*
X265665Y70487D01*
X265739Y70516D01*
X265816Y70542D01*
X265893Y70563D01*
X265972Y70581D01*
X266051Y70594D01*
X266131Y70604D01*
X266211Y70610D01*
X266291Y70612D01*
X268746Y70612D01*
X241300Y67338D02*
X239254Y67338D01*
X241300Y67338D02*
X241389Y67336D01*
X241478Y67330D01*
X241567Y67320D01*
X241655Y67307D01*
X241743Y67290D01*
X241830Y67268D01*
X241915Y67243D01*
X242000Y67215D01*
X242083Y67182D01*
X242165Y67146D01*
X242245Y67107D01*
X242323Y67064D01*
X242399Y67018D01*
X242474Y66968D01*
X242546Y66915D01*
X242615Y66859D01*
X242682Y66800D01*
X242747Y66739D01*
X242808Y66674D01*
X242867Y66607D01*
X242923Y66538D01*
X242976Y66466D01*
X243026Y66391D01*
X243072Y66315D01*
X243115Y66237D01*
X243154Y66157D01*
X243190Y66075D01*
X243223Y65992D01*
X243251Y65907D01*
X243276Y65822D01*
X243298Y65735D01*
X243315Y65647D01*
X243328Y65559D01*
X243338Y65470D01*
X243344Y65381D01*
X243346Y65292D01*
X243344Y65203D01*
X243338Y65114D01*
X243328Y65025D01*
X243315Y64937D01*
X243298Y64849D01*
X243276Y64762D01*
X243251Y64677D01*
X243223Y64592D01*
X243190Y64509D01*
X243154Y64427D01*
X243115Y64347D01*
X243072Y64269D01*
X243026Y64193D01*
X242976Y64118D01*
X242923Y64046D01*
X242867Y63977D01*
X242808Y63910D01*
X242747Y63845D01*
X242682Y63784D01*
X242615Y63725D01*
X242546Y63669D01*
X242474Y63616D01*
X242399Y63566D01*
X242323Y63520D01*
X242245Y63477D01*
X242165Y63438D01*
X242083Y63402D01*
X242000Y63369D01*
X241915Y63341D01*
X241830Y63316D01*
X241743Y63294D01*
X241655Y63277D01*
X241567Y63264D01*
X241478Y63254D01*
X241389Y63248D01*
X241300Y63246D01*
X239254Y63246D01*
X239254Y70612D01*
X241300Y70612D01*
X241379Y70610D01*
X241458Y70604D01*
X241537Y70595D01*
X241615Y70582D01*
X241692Y70564D01*
X241768Y70544D01*
X241843Y70519D01*
X241917Y70491D01*
X241990Y70460D01*
X242061Y70424D01*
X242130Y70386D01*
X242197Y70344D01*
X242262Y70299D01*
X242325Y70251D01*
X242386Y70200D01*
X242443Y70146D01*
X242499Y70090D01*
X242551Y70031D01*
X242601Y69969D01*
X242647Y69905D01*
X242691Y69839D01*
X242731Y69771D01*
X242767Y69701D01*
X242801Y69629D01*
X242831Y69555D01*
X242857Y69481D01*
X242880Y69405D01*
X242898Y69328D01*
X242914Y69251D01*
X242925Y69172D01*
X242933Y69094D01*
X242937Y69015D01*
X242937Y68935D01*
X242933Y68856D01*
X242925Y68778D01*
X242914Y68699D01*
X242898Y68622D01*
X242880Y68545D01*
X242857Y68469D01*
X242831Y68395D01*
X242801Y68321D01*
X242767Y68249D01*
X242731Y68179D01*
X242691Y68111D01*
X242647Y68045D01*
X242601Y67981D01*
X242551Y67919D01*
X242499Y67860D01*
X242443Y67804D01*
X242386Y67750D01*
X242325Y67699D01*
X242262Y67651D01*
X242197Y67606D01*
X242130Y67564D01*
X242061Y67526D01*
X241990Y67490D01*
X241917Y67459D01*
X241843Y67431D01*
X241768Y67406D01*
X241692Y67386D01*
X241615Y67368D01*
X241537Y67355D01*
X241458Y67346D01*
X241379Y67340D01*
X241300Y67338D01*
X188045Y12954D02*
X190500Y9476D01*
X192955Y12954D01*
X190500Y9476D02*
X190500Y5588D01*
X163064Y5588D02*
X161427Y5588D01*
X161349Y5590D01*
X161271Y5595D01*
X161194Y5605D01*
X161117Y5618D01*
X161041Y5634D01*
X160966Y5654D01*
X160892Y5678D01*
X160819Y5705D01*
X160747Y5736D01*
X160677Y5770D01*
X160609Y5807D01*
X160542Y5848D01*
X160477Y5892D01*
X160415Y5938D01*
X160355Y5988D01*
X160297Y6040D01*
X160242Y6095D01*
X160190Y6153D01*
X160140Y6213D01*
X160094Y6275D01*
X160050Y6340D01*
X160009Y6407D01*
X159972Y6475D01*
X159938Y6545D01*
X159907Y6617D01*
X159880Y6690D01*
X159856Y6764D01*
X159836Y6839D01*
X159820Y6915D01*
X159807Y6992D01*
X159797Y7069D01*
X159792Y7147D01*
X159790Y7225D01*
X159790Y11317D01*
X159792Y11397D01*
X159798Y11477D01*
X159808Y11557D01*
X159821Y11636D01*
X159839Y11715D01*
X159860Y11792D01*
X159886Y11868D01*
X159915Y11943D01*
X159947Y12017D01*
X159983Y12089D01*
X160023Y12159D01*
X160066Y12226D01*
X160112Y12292D01*
X160162Y12355D01*
X160214Y12416D01*
X160269Y12475D01*
X160328Y12530D01*
X160388Y12582D01*
X160452Y12632D01*
X160518Y12678D01*
X160585Y12721D01*
X160655Y12761D01*
X160727Y12797D01*
X160801Y12829D01*
X160875Y12858D01*
X160952Y12884D01*
X161029Y12905D01*
X161108Y12923D01*
X161187Y12936D01*
X161267Y12946D01*
X161347Y12952D01*
X161427Y12954D01*
X163064Y12954D01*
X165500Y12954D02*
X167955Y5588D01*
X170410Y12954D01*
X232410Y71120D02*
X232410Y83820D01*
X232408Y83920D01*
X232402Y84019D01*
X232392Y84119D01*
X232379Y84217D01*
X232361Y84316D01*
X232340Y84413D01*
X232315Y84509D01*
X232286Y84605D01*
X232253Y84699D01*
X232217Y84792D01*
X232177Y84883D01*
X232133Y84973D01*
X232086Y85061D01*
X232036Y85147D01*
X231982Y85231D01*
X231925Y85313D01*
X231865Y85392D01*
X231801Y85470D01*
X231735Y85544D01*
X231666Y85616D01*
X231594Y85685D01*
X231520Y85751D01*
X231442Y85815D01*
X231363Y85875D01*
X231281Y85932D01*
X231197Y85986D01*
X231111Y86036D01*
X231023Y86083D01*
X230933Y86127D01*
X230842Y86167D01*
X230749Y86203D01*
X230655Y86236D01*
X230559Y86265D01*
X230463Y86290D01*
X230366Y86311D01*
X230267Y86329D01*
X230169Y86342D01*
X230069Y86352D01*
X229970Y86358D01*
X229870Y86360D01*
X176530Y86360D01*
X176430Y86358D01*
X176331Y86352D01*
X176231Y86342D01*
X176133Y86329D01*
X176034Y86311D01*
X175937Y86290D01*
X175841Y86265D01*
X175745Y86236D01*
X175651Y86203D01*
X175558Y86167D01*
X175467Y86127D01*
X175377Y86083D01*
X175289Y86036D01*
X175203Y85986D01*
X175119Y85932D01*
X175037Y85875D01*
X174958Y85815D01*
X174880Y85751D01*
X174806Y85685D01*
X174734Y85616D01*
X174665Y85544D01*
X174599Y85470D01*
X174535Y85392D01*
X174475Y85313D01*
X174418Y85231D01*
X174364Y85147D01*
X174314Y85061D01*
X174267Y84973D01*
X174223Y84883D01*
X174183Y84792D01*
X174147Y84699D01*
X174114Y84605D01*
X174085Y84509D01*
X174060Y84413D01*
X174039Y84316D01*
X174021Y84217D01*
X174008Y84119D01*
X173998Y84019D01*
X173992Y83920D01*
X173990Y83820D01*
X173990Y71120D01*
X173992Y71020D01*
X173998Y70921D01*
X174008Y70821D01*
X174021Y70723D01*
X174039Y70624D01*
X174060Y70527D01*
X174085Y70431D01*
X174114Y70335D01*
X174147Y70241D01*
X174183Y70148D01*
X174223Y70057D01*
X174267Y69967D01*
X174314Y69879D01*
X174364Y69793D01*
X174418Y69709D01*
X174475Y69627D01*
X174535Y69548D01*
X174599Y69470D01*
X174665Y69396D01*
X174734Y69324D01*
X174806Y69255D01*
X174880Y69189D01*
X174958Y69125D01*
X175037Y69065D01*
X175119Y69008D01*
X175203Y68954D01*
X175289Y68904D01*
X175377Y68857D01*
X175467Y68813D01*
X175558Y68773D01*
X175651Y68737D01*
X175745Y68704D01*
X175841Y68675D01*
X175937Y68650D01*
X176034Y68629D01*
X176133Y68611D01*
X176231Y68598D01*
X176331Y68588D01*
X176430Y68582D01*
X176530Y68580D01*
X229870Y68580D01*
X229970Y68582D01*
X230069Y68588D01*
X230169Y68598D01*
X230267Y68611D01*
X230366Y68629D01*
X230463Y68650D01*
X230559Y68675D01*
X230655Y68704D01*
X230749Y68737D01*
X230842Y68773D01*
X230933Y68813D01*
X231023Y68857D01*
X231111Y68904D01*
X231197Y68954D01*
X231281Y69008D01*
X231363Y69065D01*
X231442Y69125D01*
X231520Y69189D01*
X231594Y69255D01*
X231666Y69324D01*
X231735Y69396D01*
X231801Y69470D01*
X231865Y69548D01*
X231925Y69627D01*
X231982Y69709D01*
X232036Y69793D01*
X232086Y69879D01*
X232133Y69967D01*
X232177Y70057D01*
X232217Y70148D01*
X232253Y70241D01*
X232286Y70335D01*
X232315Y70431D01*
X232340Y70527D01*
X232361Y70624D01*
X232379Y70723D01*
X232392Y70821D01*
X232402Y70921D01*
X232408Y71020D01*
X232410Y71120D01*
X130175Y50800D02*
X130175Y25400D01*
X130178Y25170D01*
X130186Y24940D01*
X130200Y24710D01*
X130219Y24481D01*
X130244Y24252D01*
X130275Y24024D01*
X130311Y23796D01*
X130352Y23570D01*
X130399Y23345D01*
X130452Y23121D01*
X130510Y22898D01*
X130573Y22676D01*
X130641Y22457D01*
X130715Y22239D01*
X130794Y22022D01*
X130878Y21808D01*
X130968Y21596D01*
X131062Y21386D01*
X131162Y21179D01*
X131266Y20974D01*
X131375Y20771D01*
X131490Y20571D01*
X131609Y20374D01*
X131733Y20180D01*
X131861Y19989D01*
X131994Y19801D01*
X132132Y19617D01*
X132274Y19436D01*
X132420Y19258D01*
X132570Y19084D01*
X132725Y18913D01*
X132884Y18747D01*
X133047Y18584D01*
X133213Y18425D01*
X133384Y18270D01*
X133558Y18120D01*
X133736Y17974D01*
X133917Y17832D01*
X134101Y17694D01*
X134289Y17561D01*
X134480Y17433D01*
X134674Y17309D01*
X134871Y17190D01*
X135071Y17075D01*
X135274Y16966D01*
X135479Y16862D01*
X135686Y16762D01*
X135896Y16668D01*
X136108Y16578D01*
X136322Y16494D01*
X136539Y16415D01*
X136757Y16341D01*
X136976Y16273D01*
X137198Y16210D01*
X137421Y16152D01*
X137645Y16099D01*
X137870Y16052D01*
X138096Y16011D01*
X138324Y15975D01*
X138552Y15944D01*
X138781Y15919D01*
X139010Y15900D01*
X139240Y15886D01*
X139470Y15878D01*
X139700Y15875D01*
X266700Y15875D01*
X266930Y15878D01*
X267160Y15886D01*
X267390Y15900D01*
X267619Y15919D01*
X267848Y15944D01*
X268076Y15975D01*
X268304Y16011D01*
X268530Y16052D01*
X268755Y16099D01*
X268979Y16152D01*
X269202Y16210D01*
X269424Y16273D01*
X269643Y16341D01*
X269861Y16415D01*
X270078Y16494D01*
X270292Y16578D01*
X270504Y16668D01*
X270714Y16762D01*
X270921Y16862D01*
X271126Y16966D01*
X271329Y17075D01*
X271529Y17190D01*
X271726Y17309D01*
X271920Y17433D01*
X272111Y17561D01*
X272299Y17694D01*
X272483Y17832D01*
X272664Y17974D01*
X272842Y18120D01*
X273016Y18270D01*
X273187Y18425D01*
X273353Y18584D01*
X273516Y18747D01*
X273675Y18913D01*
X273830Y19084D01*
X273980Y19258D01*
X274126Y19436D01*
X274268Y19617D01*
X274406Y19801D01*
X274539Y19989D01*
X274667Y20180D01*
X274791Y20374D01*
X274910Y20571D01*
X275025Y20771D01*
X275134Y20974D01*
X275238Y21179D01*
X275338Y21386D01*
X275432Y21596D01*
X275522Y21808D01*
X275606Y22022D01*
X275685Y22239D01*
X275759Y22457D01*
X275827Y22676D01*
X275890Y22898D01*
X275948Y23121D01*
X276001Y23345D01*
X276048Y23570D01*
X276089Y23796D01*
X276125Y24024D01*
X276156Y24252D01*
X276181Y24481D01*
X276200Y24710D01*
X276214Y24940D01*
X276222Y25170D01*
X276225Y25400D01*
X276225Y50800D01*
X276222Y51030D01*
X276214Y51260D01*
X276200Y51490D01*
X276181Y51719D01*
X276156Y51948D01*
X276125Y52176D01*
X276089Y52404D01*
X276048Y52630D01*
X276001Y52855D01*
X275948Y53079D01*
X275890Y53302D01*
X275827Y53524D01*
X275759Y53743D01*
X275685Y53961D01*
X275606Y54178D01*
X275522Y54392D01*
X275432Y54604D01*
X275338Y54814D01*
X275238Y55021D01*
X275134Y55226D01*
X275025Y55429D01*
X274910Y55629D01*
X274791Y55826D01*
X274667Y56020D01*
X274539Y56211D01*
X274406Y56399D01*
X274268Y56583D01*
X274126Y56764D01*
X273980Y56942D01*
X273830Y57116D01*
X273675Y57287D01*
X273516Y57453D01*
X273353Y57616D01*
X273187Y57775D01*
X273016Y57930D01*
X272842Y58080D01*
X272664Y58226D01*
X272483Y58368D01*
X272299Y58506D01*
X272111Y58639D01*
X271920Y58767D01*
X271726Y58891D01*
X271529Y59010D01*
X271329Y59125D01*
X271126Y59234D01*
X270921Y59338D01*
X270714Y59438D01*
X270504Y59532D01*
X270292Y59622D01*
X270078Y59706D01*
X269861Y59785D01*
X269643Y59859D01*
X269424Y59927D01*
X269202Y59990D01*
X268979Y60048D01*
X268755Y60101D01*
X268530Y60148D01*
X268304Y60189D01*
X268076Y60225D01*
X267848Y60256D01*
X267619Y60281D01*
X267390Y60300D01*
X267160Y60314D01*
X266930Y60322D01*
X266700Y60325D01*
X139700Y60325D01*
X139470Y60322D01*
X139240Y60314D01*
X139010Y60300D01*
X138781Y60281D01*
X138552Y60256D01*
X138324Y60225D01*
X138096Y60189D01*
X137870Y60148D01*
X137645Y60101D01*
X137421Y60048D01*
X137198Y59990D01*
X136976Y59927D01*
X136757Y59859D01*
X136539Y59785D01*
X136322Y59706D01*
X136108Y59622D01*
X135896Y59532D01*
X135686Y59438D01*
X135479Y59338D01*
X135274Y59234D01*
X135071Y59125D01*
X134871Y59010D01*
X134674Y58891D01*
X134480Y58767D01*
X134289Y58639D01*
X134101Y58506D01*
X133917Y58368D01*
X133736Y58226D01*
X133558Y58080D01*
X133384Y57930D01*
X133213Y57775D01*
X133047Y57616D01*
X132884Y57453D01*
X132725Y57287D01*
X132570Y57116D01*
X132420Y56942D01*
X132274Y56764D01*
X132132Y56583D01*
X131994Y56399D01*
X131861Y56211D01*
X131733Y56020D01*
X131609Y55826D01*
X131490Y55629D01*
X131375Y55429D01*
X131266Y55226D01*
X131162Y55021D01*
X131062Y54814D01*
X130968Y54604D01*
X130878Y54392D01*
X130794Y54178D01*
X130715Y53961D01*
X130641Y53743D01*
X130573Y53524D01*
X130510Y53302D01*
X130452Y53079D01*
X130399Y52855D01*
X130352Y52630D01*
X130311Y52404D01*
X130275Y52176D01*
X130244Y51948D01*
X130219Y51719D01*
X130200Y51490D01*
X130186Y51260D01*
X130178Y51030D01*
X130175Y50800D01*
M02*
